<mxfile modified="2024-05-04T15:06:23.839Z" host="app.diagrams.net" agent="Mozilla/5.0 (Windows NT 10.0; Win64; x64) AppleWebKit/537.36 (KHTML, like Gecko) Chrome/124.0.0.0 Safari/537.36 Edg/124.0.0.0" etag="2zNQujCUixq3awGRGXyz" version="24.3.1" type="github">
  <diagram id="Ht1M8jgEwFfnCIfOTk4-" name="Page-1">
    <mxGraphModel dx="1320" dy="1588" grid="1" gridSize="10" guides="1" tooltips="1" connect="1" arrows="1" fold="1" page="1" pageScale="1" pageWidth="1169" pageHeight="827" math="0" shadow="0">
      <root>
        <mxCell id="0" />
        <mxCell id="1" parent="0" />
        <mxCell id="UEzPUAAOIrF-is8g5C7q-123" value="Search&lt;br&gt;User name hash" style="outlineConnect=0;fontColor=#232F3E;gradientColor=none;gradientDirection=north;fillColor=#F34482;strokeColor=none;dashed=0;verticalLabelPosition=bottom;verticalAlign=top;align=center;html=1;fontSize=12;fontStyle=0;aspect=fixed;shape=mxgraph.aws4.cloudwatch;labelBackgroundColor=#ffffff;" parent="1" vertex="1">
          <mxGeometry x="465.0000000000002" y="326.4" width="78" height="78" as="geometry" />
        </mxCell>
        <object label="&lt;font color=&quot;#545b64&quot;&gt;Database&amp;nbsp;&lt;/font&gt;&lt;div&gt;&lt;font color=&quot;#545b64&quot;&gt;(Store hashed Usernames)&lt;/font&gt;&lt;/div&gt;" id="M0WG4-bEW40g9ypakB4s-2">
          <mxCell style="shape=image;html=1;verticalAlign=top;verticalLabelPosition=bottom;labelBackgroundColor=#ffffff;imageAspect=0;aspect=fixed;image=https://cdn2.iconfinder.com/data/icons/whcompare-isometric-web-hosting-servers/50/database-128.png" vertex="1" parent="1">
            <mxGeometry x="440" y="100" width="128" height="128" as="geometry" />
          </mxCell>
        </object>
        <mxCell id="M0WG4-bEW40g9ypakB4s-3" value="Examine Receipts Address" style="image;aspect=fixed;html=1;points=[];align=center;fontSize=12;image=img/lib/azure2/ai_machine_learning/Anomaly_Detector.svg;" vertex="1" parent="1">
          <mxGeometry x="706.75" y="331" width="83" height="83" as="geometry" />
        </mxCell>
        <mxCell id="M0WG4-bEW40g9ypakB4s-10" value="&lt;span style=&quot;background-color: rgb(255, 255, 255);&quot;&gt;EOA&lt;br&gt;(Externally Owned Account)&lt;/span&gt;" style="sketch=0;outlineConnect=0;gradientColor=none;fontColor=#545B64;strokeColor=none;fillColor=#879196;dashed=0;verticalLabelPosition=bottom;verticalAlign=top;align=center;html=1;fontSize=12;fontStyle=0;aspect=fixed;shape=mxgraph.aws4.illustration_devices;pointerEvents=1" vertex="1" parent="1">
          <mxGeometry x="120" y="326.4" width="120" height="87.6" as="geometry" />
        </mxCell>
        <mxCell id="M0WG4-bEW40g9ypakB4s-11" value="" style="sketch=0;outlineConnect=0;fontColor=#232F3E;gradientColor=none;fillColor=#232F3D;strokeColor=none;dashed=0;verticalLabelPosition=bottom;verticalAlign=top;align=center;html=1;fontSize=12;fontStyle=0;aspect=fixed;pointerEvents=1;shape=mxgraph.aws4.authenticated_user;" vertex="1" parent="1">
          <mxGeometry x="706.75" y="121.5" width="86.5" height="86.5" as="geometry" />
        </mxCell>
        <mxCell id="M0WG4-bEW40g9ypakB4s-13" value="" style="edgeStyle=orthogonalEdgeStyle;html=1;endArrow=none;elbow=vertical;startArrow=block;startFill=1;strokeColor=#545B64;rounded=0;exitX=0;exitY=0.5;exitDx=0;exitDy=0;" edge="1" parent="1" source="M0WG4-bEW40g9ypakB4s-2" target="M0WG4-bEW40g9ypakB4s-10">
          <mxGeometry width="100" relative="1" as="geometry">
            <mxPoint x="330" y="410" as="sourcePoint" />
            <mxPoint x="430" y="410" as="targetPoint" />
          </mxGeometry>
        </mxCell>
        <mxCell id="M0WG4-bEW40g9ypakB4s-14" value="Save User Name" style="text;html=1;align=center;verticalAlign=middle;resizable=0;points=[];autosize=1;strokeColor=none;fillColor=none;" vertex="1" parent="1">
          <mxGeometry x="140" y="190" width="110" height="30" as="geometry" />
        </mxCell>
        <mxCell id="M0WG4-bEW40g9ypakB4s-15" value="" style="edgeStyle=orthogonalEdgeStyle;html=1;endArrow=block;elbow=vertical;startArrow=none;endFill=1;strokeColor=#545B64;rounded=0;" edge="1" parent="1" source="M0WG4-bEW40g9ypakB4s-10">
          <mxGeometry width="100" relative="1" as="geometry">
            <mxPoint x="330" y="410" as="sourcePoint" />
            <mxPoint x="450" y="370" as="targetPoint" />
          </mxGeometry>
        </mxCell>
        <mxCell id="M0WG4-bEW40g9ypakB4s-16" value="Make a Tx &lt;br&gt;using User Name" style="text;html=1;align=center;verticalAlign=middle;resizable=0;points=[];autosize=1;strokeColor=none;fillColor=none;" vertex="1" parent="1">
          <mxGeometry x="280" y="350.2" width="120" height="40" as="geometry" />
        </mxCell>
        <mxCell id="M0WG4-bEW40g9ypakB4s-18" value="" style="edgeStyle=orthogonalEdgeStyle;html=1;endArrow=block;elbow=vertical;startArrow=none;endFill=1;strokeColor=#545B64;rounded=0;exitX=1;exitY=0.5;exitDx=0;exitDy=0;" edge="1" parent="1" source="M0WG4-bEW40g9ypakB4s-2" target="M0WG4-bEW40g9ypakB4s-11">
          <mxGeometry width="100" relative="1" as="geometry">
            <mxPoint x="590" y="210" as="sourcePoint" />
            <mxPoint x="680" y="160" as="targetPoint" />
          </mxGeometry>
        </mxCell>
        <mxCell id="M0WG4-bEW40g9ypakB4s-19" value="Authenticate &lt;br&gt;Username exists" style="text;html=1;align=center;verticalAlign=middle;resizable=0;points=[];autosize=1;strokeColor=none;fillColor=none;" vertex="1" parent="1">
          <mxGeometry x="580" y="144" width="110" height="40" as="geometry" />
        </mxCell>
        <mxCell id="M0WG4-bEW40g9ypakB4s-20" value="" style="edgeStyle=orthogonalEdgeStyle;html=1;endArrow=none;elbow=vertical;startArrow=block;startFill=1;strokeColor=#545B64;rounded=0;exitX=0.5;exitY=1;exitDx=0;exitDy=0;" edge="1" parent="1" source="M0WG4-bEW40g9ypakB4s-2" target="UEzPUAAOIrF-is8g5C7q-123">
          <mxGeometry width="100" relative="1" as="geometry">
            <mxPoint x="330" y="410" as="sourcePoint" />
            <mxPoint x="500" y="310" as="targetPoint" />
          </mxGeometry>
        </mxCell>
        <mxCell id="M0WG4-bEW40g9ypakB4s-21" value="Send Hashed user name" style="text;html=1;align=center;verticalAlign=middle;resizable=0;points=[];autosize=1;strokeColor=none;fillColor=none;" vertex="1" parent="1">
          <mxGeometry x="490" y="278" width="160" height="30" as="geometry" />
        </mxCell>
        <mxCell id="M0WG4-bEW40g9ypakB4s-22" value="" style="edgeStyle=orthogonalEdgeStyle;html=1;endArrow=block;elbow=vertical;startArrow=none;endFill=1;strokeColor=#545B64;rounded=0;entryX=-0.024;entryY=0.359;entryDx=0;entryDy=0;entryPerimeter=0;" edge="1" parent="1" target="M0WG4-bEW40g9ypakB4s-3">
          <mxGeometry width="100" relative="1" as="geometry">
            <mxPoint x="543" y="365" as="sourcePoint" />
            <mxPoint x="430" y="410" as="targetPoint" />
          </mxGeometry>
        </mxCell>
        <mxCell id="M0WG4-bEW40g9ypakB4s-23" value="User Exists&amp;nbsp;&lt;br&gt;Pass the address" style="text;html=1;align=center;verticalAlign=middle;resizable=0;points=[];autosize=1;strokeColor=none;fillColor=none;" vertex="1" parent="1">
          <mxGeometry x="688.25" y="210" width="120" height="40" as="geometry" />
        </mxCell>
        <mxCell id="M0WG4-bEW40g9ypakB4s-24" value="" style="edgeStyle=orthogonalEdgeStyle;html=1;endArrow=none;elbow=vertical;startArrow=openThin;startFill=0;strokeColor=#545B64;rounded=0;entryX=0.497;entryY=1.012;entryDx=0;entryDy=0;entryPerimeter=0;" edge="1" parent="1" source="M0WG4-bEW40g9ypakB4s-10" target="M0WG4-bEW40g9ypakB4s-3">
          <mxGeometry width="100" relative="1" as="geometry">
            <mxPoint x="330" y="410" as="sourcePoint" />
            <mxPoint x="730" y="590" as="targetPoint" />
            <Array as="points">
              <mxPoint x="180" y="590" />
              <mxPoint x="748" y="590" />
            </Array>
          </mxGeometry>
        </mxCell>
        <mxCell id="M0WG4-bEW40g9ypakB4s-25" value="Warn&lt;br&gt;Receipts Address is Dead/ Burned" style="text;html=1;align=center;verticalAlign=middle;resizable=0;points=[];autosize=1;strokeColor=none;fillColor=none;" vertex="1" parent="1">
          <mxGeometry x="350" y="570" width="210" height="40" as="geometry" />
        </mxCell>
        <mxCell id="M0WG4-bEW40g9ypakB4s-28" value="" style="sketch=0;outlineConnect=0;fontColor=#232F3E;gradientColor=none;fillColor=#232F3D;strokeColor=none;dashed=0;verticalLabelPosition=bottom;verticalAlign=top;align=center;html=1;fontSize=12;fontStyle=0;aspect=fixed;pointerEvents=1;shape=mxgraph.aws4.user;" vertex="1" parent="1">
          <mxGeometry x="980" y="335.8" width="59.2" height="59.2" as="geometry" />
        </mxCell>
        <mxCell id="M0WG4-bEW40g9ypakB4s-26" value="" style="shape=image;html=1;verticalAlign=top;verticalLabelPosition=bottom;labelBackgroundColor=#ffffff;imageAspect=0;aspect=fixed;image=https://cdn0.iconfinder.com/data/icons/heroicons-ui/24/icon-currency-dollar-128.png" vertex="1" parent="1">
          <mxGeometry x="960" y="320.5" width="38" height="38" as="geometry" />
        </mxCell>
        <mxCell id="M0WG4-bEW40g9ypakB4s-29" value="" style="edgeStyle=orthogonalEdgeStyle;html=1;endArrow=block;elbow=vertical;startArrow=none;endFill=1;strokeColor=#545B64;rounded=0;" edge="1" parent="1">
          <mxGeometry width="100" relative="1" as="geometry">
            <mxPoint x="789.75" y="365.04" as="sourcePoint" />
            <mxPoint x="979.75" y="365.19" as="targetPoint" />
          </mxGeometry>
        </mxCell>
        <mxCell id="M0WG4-bEW40g9ypakB4s-30" value="Send the&amp;nbsp;&lt;div&gt;Transaction&lt;/div&gt;" style="text;html=1;align=center;verticalAlign=middle;resizable=0;points=[];autosize=1;strokeColor=none;fillColor=none;" vertex="1" parent="1">
          <mxGeometry x="840" y="345.4" width="90" height="40" as="geometry" />
        </mxCell>
        <mxCell id="M0WG4-bEW40g9ypakB4s-31" value="&lt;font style=&quot;font-size: 40px;&quot;&gt;The Wallet Application Structure Design&lt;/font&gt;" style="text;html=1;align=center;verticalAlign=middle;resizable=0;points=[];autosize=1;strokeColor=none;fillColor=none;" vertex="1" parent="1">
          <mxGeometry x="219" y="-17" width="730" height="60" as="geometry" />
        </mxCell>
      </root>
    </mxGraphModel>
  </diagram>
</mxfile>
